# xmcd
#
# Track frame offsets:
#	150
#	15198
#	37221
#	51294
#	77817
#	91740
#	111888
#	130536
#	146559
#	163032
#	180180
#	200553
#
# Disc length: 3131 seconds
#
# Revision: 1
# Processed by: cddbd v1.5.2PL0 Copyright (c) Steve Scherf et al.
# Submitted via: audiograbber 1.83.01
#
DISCID=930c390c
DTITLE=Alberta Adams - Detroit is My Home
DYEAR=2007
DGENRE=Blues
TTITLE0=Keep On Keepin' On
TTITLE1=Tired of Being Alone
TTITLE2=Hello Little Boy
TTITLE3=I'm So Worried
TTITLE4=Detroit Is My Home
TTITLE5=Dr. Blues
TTITLE6=Always Home
TTITLE7=Wet Clothes
TTITLE8=Struttin My Stuff
TTITLE9=Long Gone
TTITLE10=I'm On the Move/every Day
TTITLE11=Hopin' It Will Be Alright
EXTD=
EXTT0=
EXTT1=
EXTT2=
EXTT3=
EXTT4=
EXTT5=
EXTT6=
EXTT7=
EXTT8=
EXTT9=
EXTT10=
EXTT11=
PLAYORDER=
